<svg id="Layer_35" enable-background="new 0 0 64 64" height="512" viewBox="0 0 64 64" width="512" xmlns="http://www.w3.org/2000/svg" xmlns:xlink="http://www.w3.org/1999/xlink"><linearGradient id="SVGID_1_" gradientUnits="userSpaceOnUse" x1="32.001" x2="32.001" y1="63" y2=".999"><stop offset="0" stop-color="#9f2fff"/><stop offset="1" stop-color="#0bb1d3"/></linearGradient><path d="m48 41c3.86 0 7-3.14 7-7s-3.14-7-7-7-7 3.14-7 7 3.14 7 7 7zm0-12c2.757 0 5 2.243 5 5s-2.243 5-5 5-5-2.243-5-5 2.243-5 5-5zm0 8c1.654 0 3-1.346 3-3s-1.346-3-3-3-3 1.346-3 3 1.346 3 3 3zm0-4c.551 0 1 .449 1 1s-.449 1-1 1-1-.449-1-1 .449-1 1-1zm-16-3c0-4.663-2.921-8.647-7.025-10.245 1.825-1.265 3.025-3.371 3.025-5.755 0-3.86-3.14-7-7-7s-7 3.14-7 7c0 2.384 1.2 4.49 3.025 5.755-4.104 1.598-7.025 5.582-7.025 10.245v3h22zm-16-16c0-2.757 2.243-5 5-5s5 2.243 5 5-2.243 5-5 5-5-2.243-5-5zm14 17h-3v-6h-2v6h-8v-6h-2v6h-3v-1c0-4.962 4.038-9 9-9s9 4.038 9 9zm-21.594 5.535c.234.189.438.413.646.633-1.188.4-2.052 1.511-2.052 2.832 0 .771.301 1.468.78 2-.479.532-.78 1.229-.78 2 0 1.654 1.346 3 3 3h1.059c.5 4.493 4.317 8 8.941 8h2c4.624 0 8.441-3.507 8.941-8h1.059c1.654 0 3-1.346 3-3 0-.771-.301-1.468-.78-2 .48-.532.78-1.229.78-2 0-1.328-.873-2.444-2.071-2.838.176-.181.344-.371.539-.527.537-.429 1.042-.897 1.532-1.378v2.524l2.416.603-1.281 2.134 4.456 4.457c-4.607 2.611-7.591 7.523-7.591 13.025v5h30v-5c0-5.502-2.984-10.414-7.591-13.024l4.456-4.457-1.281-2.134 2.416-.604v-7.562l-2.416-.603 1.281-2.134-5.347-5.347-2.134 1.281-.603-2.416h-7.562l-.603 2.416-2.134-1.281-.561.561c.046-.564.079-1.129.079-1.696 0-5.685-2.432-11.12-6.672-14.912-4.298-3.845-9.849-5.604-15.631-4.958-9.049 1.012-16.426 8.3-17.54 17.329-.856 6.94 1.854 13.697 7.249 18.076zm13.594 16.465h-2c-3.519 0-6.432-2.613-6.92-6h15.84c-.488 3.387-3.401 6-6.92 6zm10-8h-22c-.551 0-1-.449-1-1s.449-1 1-1h22c.551 0 1 .449 1 1s-.449 1-1 1zm0-4h-22c-.551 0-1-.449-1-1s.449-1 1-1h22c.551 0 1 .449 1 1s-.449 1-1 1zm29 17v3h-3v-8h-2v8h-16v-8h-2v8h-3v-3c0-5.636 3.61-10.563 8.89-12.316l.329 1.316h1.649l-.92 7.361 3.052 3.053 3.053-3.053-.92-7.361h1.649l.328-1.316c5.28 1.753 8.89 6.68 8.89 12.316zm-12.883-11 .83 6.639-.947.947-.947-.947.83-6.639zm-6.326-22.347 2.158 1.296 1.222-.502.61-2.447h4.438l.611 2.446 1.222.502 2.158-1.296 3.138 3.138-1.296 2.158.502 1.222 2.446.611v4.438l-2.446.611-.503 1.22 1.296 2.16-2.672 2.672-2.772-.765-1.074.438-.61 2.445h-4.438l-.611-2.446-1.074-.438-2.772.765-2.672-2.672 1.296-2.16-.5-1.219-2.448-.611v-4.438l2.446-.611.502-1.222-1.296-2.158zm-38.649-5.948c1.003-8.122 7.638-14.678 15.777-15.588 5.212-.581 10.207 1.002 14.075 4.462 3.817 3.413 6.006 8.305 6.006 13.421 0 1.383-.163 2.755-.473 4.088l-2.393 2.393 1.281 2.134-2.415.604v2.067c-.825 1.022-1.751 1.965-2.779 2.786-.671.536-1.25 1.186-1.737 1.928h-19.004c-.508-.769-1.113-1.45-1.814-2.019-4.856-3.941-7.295-10.026-6.524-16.276zm56.858 2.295c1.654 0 3-1.346 3-3s-1.346-3-3-3c-1.302 0-2.402.839-2.816 2h-14.184v2h14.184c.414 1.161 1.514 2 2.816 2zm0-4c.551 0 1 .449 1 1s-.449 1-1 1-1-.449-1-1 .449-1 1-1zm-14-6h-2v-2h2zm-4 0h-2v-2h2zm14 2c1.654 0 3-1.346 3-3s-1.346-3-3-3c-1.302 0-2.402.839-2.816 2h-5.184v2h5.184c.414 1.161 1.514 2 2.816 2zm0-4c.551 0 1 .449 1 1s-.449 1-1 1-1-.449-1-1 .449-1 1-1zm-48.669 15.041-1.953.433c-.152-.689-.26-1.398-.321-2.107l1.993-.17c.053.62.147 1.241.281 1.844zm1.283 3.492-1.769.935c-.333-.63-.625-1.285-.868-1.948l1.878-.688c.213.578.468 1.15.759 1.701zm-1.598-7.202-1.998-.094c.034-.711.115-1.424.241-2.118l1.968.358c-.111.607-.182 1.231-.211 1.854zm25.829-6.797 1.691-1.068c1.612 2.552 2.464 5.503 2.464 8.534 0 2.6-.638 5.183-1.846 7.467l-1.769-.935c1.057-1.997 1.615-4.256 1.615-6.532 0-2.652-.745-5.234-2.155-7.466zm-3.444-3.734 1.201-1.6c.84.631 1.622 1.349 2.324 2.133l-1.49 1.334c-.615-.687-1.3-1.315-2.035-1.867z" fill="url(#SVGID_1_)"/></svg>